<?xml version="1.0" standalone="no"?>
<!DOCTYPE svg PUBLIC "-//W3C//DTD SVG 20010904//EN"
 "http://www.w3.org/TR/2001/REC-SVG-20010904/DTD/svg10.dtd">
<svg version="1.0" xmlns="http://www.w3.org/2000/svg"
 width="1000.000000pt" height="1000.000000pt" viewBox="0 0 1000.000000 1000.000000"
 preserveAspectRatio="xMidYMid meet">
<metadata>
Created by potrace 1.11, written by Peter Selinger 2001-2013
</metadata>
<g transform="translate(0.000000,1000.000000) scale(0.100000,-0.100000)"
fill="#000000" stroke="none">
<path d="M0 5000 l0 -5000 5000 0 5000 0 0 5000 0 5000 -5000 0 -5000 0 0
-5000z m4400 2520 c338 -538 617 -979 620 -980 3 0 284 439 624 976 341 537
624 978 630 980 6 2 498 3 1094 2 l1082 -3 -1145 -1703 c-630 -936 -1145
-1707 -1145 -1712 0 -5 538 -812 1195 -1792 l1195 -1783 -1107 -3 c-610 -1
-1113 0 -1119 2 -6 2 -310 475 -675 1050 -365 575 -666 1046 -669 1046 -3 -1
-306 -473 -675 -1050 l-670 -1050 -1093 0 -1092 0 88 133 c49 72 589 874 1200
1780 l1112 1649 -113 166 c-63 92 -580 866 -1151 1720 l-1037 1552 1118 0
1118 0 615 -980z"/>
</g>
</svg>
