<?xml version="1.0" encoding="utf-8"?>
<!-- Generator: Adobe Illustrator 19.2.0, SVG Export Plug-In . SVG Version: 6.00 Build 0)  -->
<svg version="1.1" baseProfile="basic" id="Layer_1"
	 xmlns="http://www.w3.org/2000/svg" xmlns:xlink="http://www.w3.org/1999/xlink" x="0px" y="0px" viewBox="0 0 1037.8 273.2"
	 xml:space="preserve">
<g>
	<path fill="#FFFFFF" d="M93.7,134.3L3.9,0h87l48.4,76.9L188.1,0h85.1l-89.8,133.5l93.7,139.7h-87l-52.3-82.3l-52.7,82.3H0
		L93.7,134.3z"/>
	<path fill="#FFFFFF" d="M290,0h140.1c34.3,0,58.5,8.6,74.5,24.6c10.9,10.9,17.6,25.4,17.6,44.1v0.8c0,31.6-18,50.3-42.1,60.9
		c33.2,10.9,54.2,29.7,54.2,66.7v0.8c0,46.8-38.2,75.3-103.4,75.3H290V0z M411.4,108.9c23,0,35.9-7.8,35.9-23.8v-0.8
		c0-14.8-11.7-23.4-34.3-23.4h-49.2v48H411.4z M422.3,212.3c23,0,36.3-9,36.3-25v-0.8c0-14.8-11.7-24.6-37.1-24.6h-57.8v50.3H422.3z
		"/>
	<path fill="#FFFFFF" d="M553.4,0h75.7v206.8h132.3v66.3h-208V0z"/>
	<path fill="#FFFFFF" d="M778.2,0h105.4c97.6,0,154.2,56.2,154.2,135v0.8c0,78.8-57.4,137.4-155.7,137.4H778.2V0z M884.8,206.1
		c45.3,0,75.3-25,75.3-69.1v-0.8c0-43.7-30.1-69.1-75.3-69.1h-30.8v138.9H884.8z"/>
</g>
</svg>
