<?xml version="1.0" encoding="utf-8"?>
<!-- Generator: Adobe Illustrator 19.2.0, SVG Export Plug-In . SVG Version: 6.00 Build 0)  -->
<svg version="1.1" baseProfile="basic" id="Layer_1"
	 xmlns="http://www.w3.org/2000/svg" xmlns:xlink="http://www.w3.org/1999/xlink" x="0px" y="0px" viewBox="0 0 1037.8 407.3"
	 xml:space="preserve">
<path fill="#FFFFFF" d="M93.7,134.3L3.9,0h87l48.4,76.9L188.1,0h85.1l-89.8,133.5l93.7,139.7h-87l-52.3-82.3l-52.7,82.3H0
	L93.7,134.3z M290,0h140.1c34.3,0,58.5,8.6,74.5,24.6c10.9,10.9,17.6,25.4,17.6,44.1v0.8c0,31.6-18,50.3-42.1,60.9
	c33.2,10.9,54.2,29.7,54.2,66.7v0.8c0,46.8-38.2,75.3-103.4,75.3H290V0z M411.4,108.9c23,0,35.9-7.8,35.9-23.8v-0.8
	c0-14.8-11.7-23.4-34.3-23.4h-49.2v48H411.4z M422.3,212.3c23,0,36.3-9,36.3-25v-0.8c0-14.8-11.7-24.6-37.1-24.6h-57.8v50.3H422.3z
	 M553.4,0h75.7v206.8h132.3v66.3h-208V0z M778.2,0h105.4c97.6,0,154.2,56.2,154.2,135v0.8c0,78.8-57.4,137.4-155.7,137.4H778.2V0z
	 M884.8,206.1c45.3,0,75.3-25,75.3-69.1v-0.8c0-43.7-30.1-69.1-75.3-69.1h-30.8v138.9H884.8z M36.1,369c0.4,0.2,0.6,0.4,0.2,1
	c-1.5,2.2-8,8.6-15.4,8.6c-4,0-9-3.1-9-9.9c0-14,10.9-32.7,23.3-32.7c5.2,0,6.9,3.8,6.9,5.6c0,2.8-2.2,5-4.2,5
	c-1.6,0-2.8-0.6-3.4-2.4c-0.6-1.4-1.5-3-3.1-3c-2.2,0-4.1,2.4-6,6.8c-2.5,6-3.9,12.2-3.9,17.6c0,5,1.5,7.2,4.1,7.2
	c3.2,0,7.1-3,8.3-4.4c0.2-0.4,0.6-0.6,0.8-0.4L36.1,369z M95,364.9c0-8.4,2.8-16.4,8.4-22.5c4-4.4,8.8-6.4,14.2-6.4
	c5.8,0,12.4,3.6,12.4,12.6c0,6.4-2.6,16.8-8.6,23.4c-3.8,4.4-8.4,6.6-14.4,6.6C101.1,378.6,95,374.1,95,364.9z M117,363.9
	c3.7-6.3,6.8-14.6,6.8-18.2c0-2.2-1.4-4.5-4.3-4.5c-4.1,0-7.9,3.5-12.8,11.7c-3.3,5.6-5.3,11.6-5.3,15.6c0,2.7,2,4.7,4.2,4.7
	C109.5,373.2,113.1,370.4,117,363.9z M194.2,357.8c2.3-6.2,5.1-12.5,5.1-14c0-0.8-0.4-1.4-1.3-1.4c-1.2,0-6.4,4.8-7.2,6
	c-0.4,0.4-0.8,0.4-1.2,0l-1.2-1c-0.2-0.4-0.4-0.6-0.2-1c2-2.4,9.2-10.4,16.5-10.4c3,0,4.3,1.4,4.3,3.6c0,2.8-5.6,14-6.4,16.4
	l0.8,0.4c4.2-7,13-20.4,22-20.4c3.4,0,5.5,2.3,5.5,4.7c0,3.7-3.7,12.3-5.3,15.9l0.8,0.4c5.4-8.4,13.2-21,22.4-21
	c3.6,0,5.5,3.1,5.5,5.4c0,2.9-2.5,8.6-5.5,17.2c-2,5.8-4,10-4,11.6c0.2,0.8,0.6,1.4,1.2,1.4c2.2,0,7-6.4,7.6-7.2
	c0.2-0.4,0.6-0.4,0.8-0.3l1.4,0.9c0.4,0.4,0.4,0.6,0.2,1.4c-0.4,0.6-8.8,12.2-18,12.2c-2.2,0-3.4-1.6-3.4-3c0-2.2,2.2-8.4,6-18
	c3.1-7.8,4.3-11.2,4.3-12.8c0-1.2-0.7-2-2.1-2c-2.4,0-10.4,9-16.6,18.4c-0.6,1-2.4,3.6-3.8,7l-3.1,8.6c-0.2,0.6-0.7,0.8-1.5,0.8
	h-6.3c-0.8,0-1.2-0.4-1-1l6.3-16.6c2.6-7,5.1-13.6,5.1-15c0.1-1.2-0.8-2-2.1-2c-2.4,0-10.2,8.4-16,16.8c-1.4,2-3,4.8-4.6,8.4
	l-3.3,8.6c-0.2,0.6-0.7,0.8-1.5,0.8h-6.3c-0.6,0-1.1-0.4-0.8-1.2L194.2,357.8z M326.8,364.8c-1.4,3.8-1.8,5.4-1.8,6.4
	c0,0.8,0.4,1.4,1.2,1.4c2-0.2,7.2-5.6,7.8-6.4c0.2-0.4,0.6-0.4,0.9-0.1l1.1,1.1c0.4,0.4,0.6,0.6,0.2,1c-0.6,0.8-7.6,10.4-18.5,10.4
	c-2.1,0-2.9-1.2-2.9-2.8c0-2,1.6-6.7,5.6-17.8l2.8-7.8c1-2.7,1.6-4.6,1.6-5.8c0-0.8-0.4-1.2-1.2-1.2c-1.6,0-6.2,5.2-7.6,6.8
	c-0.4,0.4-0.8,0.4-1.2,0l-1-0.9c-0.4-0.3-0.6-0.5-0.4-0.9c0.6-0.6,9.6-12.2,18.4-12.2c2.4,0,3.6,1.2,3.6,3.2s-1.3,5.7-3,10.4
	L326.8,364.8z M328.5,318.5c0-2.7,2.5-5.4,5.6-5.4c4,0,6.1,2.5,6.1,5c0,2.3-2.3,5.8-5.9,5.8C330.3,323.9,328.5,321,328.5,318.5z
	 M402.4,377c-0.2,0.4-0.4,0.6-1.4,0.6h-6.4c-0.9,0-1-0.7-0.8-1.3l6.8-18.5c2.2-6.4,4.6-12.6,4.6-14c0-1-0.6-1.6-1.5-1.6
	c-1.8,0-5.7,3.6-7.3,5.2c-0.2,0.4-0.6,0.4-0.9,0.1l-1.1-1.1c-0.4-0.2-0.6-0.6-0.2-1c1.4-1.8,8-9.4,17.1-9.4c2.9,0,3.8,2,3.8,3.4
	c0,2.2-2.9,9-4.7,13.4l0.6,0.4c3-4.6,12.2-17.2,21.7-17.2c3.7,0,5.7,2.8,5.7,5.6c0,2.6-1.3,7.3-5.4,17.6c-2.6,6.6-4,10.4-4,11.8
	c0,1,0.4,1.6,1.2,1.6c1.4,0,5.2-3.4,6.2-4.8c0.4-0.2,0.8-0.2,1.2,0.2l1,0.8c0.4,0.2,0.4,0.6,0,1.2c-1.2,1.6-8.2,8.6-16.6,8.6
	c-2.2,0-3.4-1.2-3.4-3c0-1.8,2.8-8.6,6-17.4c1.5-4.2,4.3-11.8,4.3-13c0-1.6-0.9-2.4-2.3-2.4c-3,0-11.4,8-15.6,14.8
	c-2,3.2-3.8,6.2-5.4,10.2L402.4,377z M486.8,394.9c0-3.2,1.2-5.2,4.2-7.6c4-3.4,9.6-5.6,12.6-6.8c-3-2.2-3.8-4-3.8-6
	c0-2.2,2.8-4.6,8.6-7.4l0.2-0.4c-4.6-1.8-8.2-4.8-8.2-11.7c0-7.4,7-19,19.6-19c6,0,8.8,3.2,9.8,4.3c1.6-1.2,5-3.3,8.4-3.3
	c3.2,0,4.4,2.6,4.4,4.4c0,1.8-1.2,3.6-3.6,3.6c-1.6,0-2.6-0.6-3.4-1.4c-0.4-0.6-1-1-1.8-1s-2,0.6-2.4,1.2c0.4,1.2,0.6,3.4,0.6,5.1
	c0,4.8-4.2,16.4-15.8,18.2c-2.2,0.4-3.6,0.6-3.8,0.6c-2,1-4.2,3-4.2,4.6c0,1,1.2,2.2,2,2.8c1.8,1.3,6.8,3.8,13.8,8
	c6,3.6,7.6,7,7.6,10c0,2.4-1,7.2-7.2,10.6c-3.8,2.2-8.4,3.6-16,3.6C496.6,407.3,486.8,401.3,486.8,394.9z M522,396.7
	c0-4.4-2.8-6.3-7-8.8c-1-0.6-7.4-4.4-8.9-5.4c-6.1,2.8-9.9,6.2-9.9,10.8c0,7,7.2,10.4,14.6,10.4C515.8,403.7,522,401.4,522,396.7z
	 M523,345.3c0-3.9-0.8-6.1-3.6-6.1c-2.2,0-3.8,1.2-5.5,3.9c-3.9,6.2-4.5,10.2-4.5,15.3c0,3.8,1.2,5.6,3.6,5.6
	C519.2,364,523,352.4,523,345.3z M670.4,378.6c-6.6,0-10-2.4-10-5.8c0-2.4,1.6-4.2,3.8-4.2c2.4,0,4,1.6,4.8,4
	c0.6,1.6,1.4,2.6,3.2,2.6c2.8,0,5-2.2,5-6.4c0.2-3.4-2.4-6.3-4.5-9.9c-2-3.4-3.9-5.9-3.7-10.1c0-6.4,5.4-12.8,14.8-12.8
	c3.4,0,7.8,1.4,7.8,5.6c0,2.6-1.6,4.2-3.8,4.2c-1.8,0-3.4-0.8-4-3.4c-0.4-1.2-0.8-2.8-2.4-2.8c-2,0-4.2,1.4-4.2,5.8
	c0,3.4,3.5,7.5,4.6,9c2,2.7,3.8,6.2,3.8,10.8C685.6,373,679.4,378.6,670.4,378.6z M746.6,364.9c0-8.4,2.8-16.4,8.4-22.5
	c4-4.4,8.8-6.4,14.2-6.4c5.8,0,12.4,3.6,12.4,12.6c0,6.4-2.6,16.8-8.6,23.4c-3.8,4.4-8.4,6.6-14.4,6.6
	C752.7,378.6,746.6,374.1,746.6,364.9z M768.6,363.9c3.7-6.3,6.8-14.6,6.8-18.2c0-2.2-1.4-4.5-4.3-4.5c-4.1,0-7.9,3.5-12.8,11.7
	c-3.3,5.6-5.3,11.6-5.3,15.6c0,2.7,2,4.7,4.2,4.7C761.1,373.2,764.7,370.4,768.6,363.9z M837.6,364.9c0-8.4,2.8-16.4,8.4-22.5
	c4-4.4,8.8-6.4,14.2-6.4c5.8,0,12.4,3.6,12.4,12.6c0,6.4-2.6,16.8-8.6,23.4c-3.8,4.4-8.4,6.6-14.4,6.6
	C843.7,378.6,837.6,374.1,837.6,364.9z M859.6,363.9c3.7-6.3,6.8-14.6,6.8-18.2c0-2.2-1.4-4.5-4.3-4.5c-4.1,0-7.9,3.5-12.8,11.7
	c-3.3,5.6-5.3,11.6-5.3,15.6c0,2.7,2,4.7,4.2,4.7C852.1,373.2,855.7,370.4,859.6,363.9z M938.6,377c-0.2,0.4-0.4,0.6-1.4,0.6h-6.4
	c-0.9,0-1-0.7-0.8-1.3l6.8-18.5c2.2-6.4,4.6-12.6,4.6-14c0-1-0.6-1.6-1.5-1.6c-1.8,0-5.7,3.6-7.3,5.2c-0.2,0.4-0.6,0.4-0.9,0.1
	l-1.1-1.1c-0.4-0.2-0.6-0.6-0.2-1c1.4-1.8,8-9.4,17.1-9.4c2.9,0,3.8,2,3.8,3.4c0,2.2-2.9,9-4.7,13.4l0.6,0.4
	c3-4.6,12.2-17.2,21.7-17.2c3.7,0,5.7,2.8,5.7,5.6c0,2.6-1.3,7.3-5.4,17.6c-2.6,6.6-4,10.4-4,11.8c0,1,0.4,1.6,1.2,1.6
	c1.4,0,5.2-3.4,6.2-4.8c0.4-0.2,0.8-0.2,1.2,0.2l1,0.8c0.4,0.2,0.4,0.6,0,1.2c-1.2,1.6-8.2,8.6-16.6,8.6c-2.2,0-3.4-1.2-3.4-3
	c0-1.8,2.8-8.6,6-17.4c1.5-4.2,4.3-11.8,4.3-13c0-1.6-0.9-2.4-2.3-2.4c-3,0-11.4,8-15.6,14.8c-2,3.2-3.8,6.2-5.4,10.2L938.6,377z"/>
</svg>
