<?xml version="1.0" encoding="utf-8"?>
<!-- Generator: Adobe Illustrator 19.2.0, SVG Export Plug-In . SVG Version: 6.00 Build 0)  -->
<svg version="1.1" baseProfile="basic" id="Layer_1"
	 xmlns="http://www.w3.org/2000/svg" xmlns:xlink="http://www.w3.org/1999/xlink" x="0px" y="0px" viewBox="0 0 1037.8 407.3"
	 xml:space="preserve">
<path fill="#FFFFFF" d="M93.7,134.3L3.9,0h87l48.4,76.9L188.1,0h85.1l-89.8,133.5l93.7,139.7h-87l-52.3-82.3l-52.7,82.3H0
	L93.7,134.3z M290,0h140.1c34.3,0,58.5,8.6,74.5,24.6c10.9,10.9,17.6,25.4,17.6,44.1v0.8c0,31.6-18,50.3-42.1,60.9
	c33.2,10.9,54.2,29.7,54.2,66.7v0.8c0,46.8-38.2,75.3-103.4,75.3H290V0z M411.4,108.9c23,0,35.9-7.8,35.9-23.8v-0.8
	c0-14.8-11.7-23.4-34.3-23.4h-49.2v48H411.4z M422.3,212.3c23,0,36.3-9,36.3-25v-0.8c0-14.8-11.7-24.6-37.1-24.6h-57.8v50.3h58.6
	V212.3z M553.4,0h75.7v206.8h132.3v66.3h-208V0z M778.2,0h105.4c97.6,0,154.2,56.2,154.2,135v0.8c0,78.8-57.4,137.4-155.7,137.4
	H778.2V0z M884.8,206.1c45.3,0,75.3-25,75.3-69.1v-0.8c0-43.7-30.1-69.1-75.3-69.1H854V206h30.8V206.1z M52.8,335.8
	c0.6,0,0.8,0.4,0.6,1c-1.8,4.2-6.6,17-7.4,19.6c-0.4,1.8-4.2,13.4-4.2,14.6c0,1,0.4,1.2,1.2,1.2c1.4,0,5.4-4.8,6.2-5.8
	c0.4-0.4,0.6-0.6,1-0.3l1.2,0.9c0.2,0.2,0.2,0.6,0,1.2c-1,2-8,10.4-15.8,10.4c-2.2,0-3.2-1-3.2-2.6c0-1.4,0.6-3.6,4.2-14l-0.6-0.2
	c-4.2,6.2-12.4,16.8-20.6,16.8c-2.6,0-6.2-3-6.2-7.2c0-13.4,14-35.4,27.4-35.4c4.4,0,6.4,1.8,7.6,3.4l1.6-2.8c0.4-0.6,1-0.8,1.6-0.8
	H52.8z M37.8,353.4c1.4-2.8,2.4-5.8,2.4-9c0-1.6-1.8-4.4-4.6-4.4c-2.6,0-5.6,2.4-8.2,6.1C21.8,354,19,363,19,368.6
	c0,2.2,0.8,3.2,2.4,3.2C25.2,371.8,36,357.2,37.8,353.4z M177.9,310.1c1.4,0,1.8,1,1.5,1.7c-1.5,3.6-17.5,50.2-19.1,56.4
	c-0.6,3-0.8,4.4,0.6,4.4c1.6,0,5.8-4.4,6.4-5c0.4-0.4,0.8-0.4,1.1-0.1l1.3,1.1c0.2,0.2,0.2,0.6,0,1c-0.8,1-8,9-16,9
	c-2.2,0-3.4-0.8-3.4-2.6c0-2.4,2-8.4,4-14l-1-0.4c-4.8,7.8-12.6,17-19.8,17c-4.4,0-7.4-4-7.4-8.2c0-7,4.6-18.4,12.9-26.7
	c2.6-2.6,7.9-7.7,14.9-7.7c2.8,0,5.4,1.2,7.1,3.2l6.7-21.7c0.6-1.8,0-3.8-2.6-3.8h-3c-0.8,0-1-0.4-0.8-0.6l0.4-2.4
	c0.2-0.4,0.4-0.6,1.6-0.6H177.9z M152.5,339.6c-7,0-16.2,21.2-16.2,29.4c0,2.2,1.2,3.4,2.6,3.4c3,0,8.8-7.2,12.6-12.6
	c2.8-3.8,6.4-10.4,6.4-14.4C157.9,342.3,156,339.6,152.5,339.6z M214.3,364.8c-1.4,3.8-1.8,5.4-1.8,6.4c0,0.8,0.4,1.4,1.2,1.4
	c2-0.2,7.2-5.6,7.8-6.4c0.2-0.4,0.6-0.4,0.9-0.1l1.1,1.1c0.4,0.4,0.6,0.6,0.2,1c-0.6,0.8-7.6,10.4-18.5,10.4c-2.1,0-2.9-1.2-2.9-2.8
	c0-2,1.6-6.7,5.6-17.8l2.8-7.8c1-2.7,1.6-4.6,1.6-5.8c0-0.8-0.4-1.2-1.2-1.2c-1.6,0-6.2,5.2-7.6,6.8c-0.4,0.4-0.8,0.4-1.2,0l-1-0.9
	c-0.4-0.3-0.6-0.5-0.4-0.9c0.6-0.6,9.6-12.2,18.4-12.2c2.4,0,3.6,1.2,3.6,3.2s-1.3,5.7-3,10.4L214.3,364.8z M216,318.5
	c0-2.7,2.5-5.4,5.6-5.4c4,0,6.1,2.5,6.1,5c0,2.3-2.3,5.8-5.9,5.8C217.8,323.9,216,321,216,318.5z M244.3,394.9
	c0-3.2,1.2-5.2,4.2-7.6c4-3.4,9.6-5.6,12.6-6.8c-3-2.2-3.8-4-3.8-6c0-2.2,2.8-4.6,8.6-7.4l0.2-0.4c-4.6-1.8-8.2-4.8-8.2-11.7
	c0-7.4,7-19,19.6-19c6,0,8.8,3.2,9.8,4.3c1.6-1.2,5-3.3,8.4-3.3c3.2,0,4.4,2.6,4.4,4.4s-1.2,3.6-3.6,3.6c-1.6,0-2.6-0.6-3.4-1.4
	c-0.4-0.6-1-1-1.8-1c-0.8,0-2,0.6-2.4,1.2c0.4,1.2,0.6,3.4,0.6,5.1c0,4.8-4.2,16.4-15.8,18.2c-2.2,0.4-3.6,0.6-3.8,0.6
	c-2,1-4.2,3-4.2,4.6c0,1,1.2,2.2,2,2.8c1.8,1.3,6.8,3.8,13.8,8c6,3.6,7.6,7,7.6,10c0,2.4-1,7.2-7.2,10.6c-3.8,2.2-8.4,3.6-16,3.6
	C254.1,407.3,244.3,401.3,244.3,394.9z M279.5,396.7c0-4.4-2.8-6.3-7-8.8c-1-0.6-7.4-4.4-8.9-5.4c-6.1,2.8-9.9,6.2-9.9,10.8
	c0,7,7.2,10.4,14.6,10.4C273.3,403.7,279.5,401.4,279.5,396.7z M280.5,345.3c0-3.9-0.8-6.1-3.6-6.1c-2.2,0-3.8,1.2-5.5,3.9
	c-3.9,6.2-4.5,10.2-4.5,15.3c0,3.8,1.2,5.6,3.6,5.6C276.7,364,280.5,352.4,280.5,345.3z M339.5,364.8c-1.4,3.8-1.8,5.4-1.8,6.4
	c0,0.8,0.4,1.4,1.2,1.4c2-0.2,7.2-5.6,7.8-6.4c0.2-0.4,0.6-0.4,0.9-0.1l1.1,1.1c0.4,0.4,0.6,0.6,0.2,1c-0.6,0.8-7.6,10.4-18.5,10.4
	c-2.1,0-2.9-1.2-2.9-2.8c0-2,1.6-6.7,5.6-17.8l2.8-7.8c1-2.7,1.6-4.6,1.6-5.8c0-0.8-0.4-1.2-1.2-1.2c-1.6,0-6.2,5.2-7.6,6.8
	c-0.4,0.4-0.8,0.4-1.2,0l-1-0.9c-0.4-0.3-0.6-0.5-0.4-0.9c0.6-0.6,9.6-12.2,18.4-12.2c2.4,0,3.6,1.2,3.6,3.2s-1.3,5.7-3,10.4
	L339.5,364.8z M341.2,318.5c0-2.7,2.5-5.4,5.6-5.4c4,0,6.1,2.5,6.1,5c0,2.3-2.3,5.8-5.9,5.8C343,323.9,341.2,321,341.2,318.5z
	 M391.6,364.6c-0.8,2.2-1.8,4.6-1.8,5.8c0,1,0.6,1.8,1.8,1.8c2.3,0,8.5-5,9.1-5.6c0.4-0.4,0.6-0.4,1,0l1.1,1.2
	c0.4,0.2,0.4,0.4,0.2,0.8c-1.2,1.6-10.2,10-19.2,10c-3,0-4.2-1.6-4.2-3c0-1.8,0.4-3.8,1-5.6l10.6-27.4h-7.4c-0.6,0-0.8-0.2-0.6-1
	l0.8-2.6c0.2-0.6,0.4-0.8,1-0.8h7.7l4.1-10.6c0.4-1,0.8-1.2,2.6-1.4c2-0.2,6-2,6.8-2.6c0.6-0.2,1.2-0.6,1.6-0.6c0.6,0,1,1,0.6,2
	l-6.5,13.2h10.3c0.4,0,0.6,0.4,0.4,1l-0.8,2.9c-0.1,0.4-0.4,0.5-1,0.5h-10.4L391.6,364.6z M477.2,335.8c0.6,0,0.8,0.4,0.6,1
	c-1.8,4.2-6.6,17-7.4,19.6c-0.4,1.8-4.2,13.4-4.2,14.6c0,1,0.4,1.2,1.2,1.2c1.4,0,5.4-4.8,6.2-5.8c0.4-0.4,0.6-0.6,1-0.3l1.2,0.9
	c0.2,0.2,0.2,0.6,0,1.2c-1,2-8,10.4-15.8,10.4c-2.2,0-3.2-1-3.2-2.6c0-1.4,0.6-3.6,4.2-14l-0.6-0.2c-4.2,6.2-12.4,16.8-20.6,16.8
	c-2.6,0-6.2-3-6.2-7.2c0-13.4,14-35.4,27.4-35.4c4.4,0,6.4,1.8,7.6,3.4l1.6-2.8c0.4-0.6,1-0.8,1.6-0.8H477.2z M462.2,353.4
	c1.4-2.8,2.4-5.8,2.4-9c0-1.6-1.8-4.4-4.6-4.4c-2.6,0-5.6,2.4-8.2,6.1c-5.6,7.9-8.4,16.9-8.4,22.5c0,2.2,0.8,3.2,2.4,3.2
	C449.6,371.8,460.4,357.2,462.2,353.4z M524.9,319.8c1.3-3.5,1.2-6.1-1.8-6.1h-3.2c-0.4,0-0.5-0.3-0.4-0.8l0.6-2.3
	c0.1-0.3,0.3-0.5,0.8-0.5h15.4c0.9,0,1.1,0.6,0.8,1.5l-20.2,54.6c-1,2.6-2,6,0,6s6-3.8,7.2-5.2c0.4-0.2,0.6-0.2,1,0.2l1.2,1
	c0.2,0.4,0.4,0.6,0,1.2c-0.4,0.6-9,9.2-17.8,9.2c-1.8,0-3.4-1.6-3.4-3.6c0-1.6,2.2-7.2,3.2-10L524.9,319.8z M644.7,335.8
	c0.6,0,0.8,0.4,0.6,1c-1.8,4.2-6.6,17-7.4,19.6c-0.4,1.8-4.2,13.4-4.2,14.6c0,1,0.4,1.2,1.2,1.2c1.4,0,5.4-4.8,6.2-5.8
	c0.4-0.4,0.6-0.6,1-0.3l1.2,0.9c0.2,0.2,0.2,0.6,0,1.2c-1,2-8,10.4-15.8,10.4c-2.2,0-3.2-1-3.2-2.6c0-1.4,0.6-3.6,4.2-14l-0.6-0.2
	c-4.2,6.2-12.4,16.8-20.6,16.8c-2.6,0-6.2-3-6.2-7.2c0-13.4,14-35.4,27.4-35.4c4.4,0,6.4,1.8,7.6,3.4l1.6-2.8c0.4-0.6,1-0.8,1.6-0.8
	H644.7z M629.7,353.4c1.4-2.8,2.4-5.8,2.4-9c0-1.6-1.8-4.4-4.6-4.4c-2.6,0-5.6,2.4-8.2,6.1c-5.6,7.9-8.4,16.9-8.4,22.5
	c0,2.2,0.8,3.2,2.4,3.2C617.1,371.8,627.9,357.2,629.7,353.4z M664,394.9c0-3.2,1.2-5.2,4.2-7.6c4-3.4,9.6-5.6,12.6-6.8
	c-3-2.2-3.8-4-3.8-6c0-2.2,2.8-4.6,8.6-7.4l0.2-0.4c-4.6-1.8-8.2-4.8-8.2-11.7c0-7.4,7-19,19.6-19c6,0,8.8,3.2,9.8,4.3
	c1.6-1.2,5-3.3,8.4-3.3c3.2,0,4.4,2.6,4.4,4.4s-1.2,3.6-3.6,3.6c-1.6,0-2.6-0.6-3.4-1.4c-0.4-0.6-1-1-1.8-1c-0.8,0-2,0.6-2.4,1.2
	c0.4,1.2,0.6,3.4,0.6,5.1c0,4.8-4.2,16.4-15.8,18.2c-2.2,0.4-3.6,0.6-3.8,0.6c-2,1-4.2,3-4.2,4.6c0,1,1.2,2.2,2,2.8
	c1.8,1.3,6.8,3.8,13.8,8c6,3.6,7.6,7,7.6,10c0,2.4-1,7.2-7.2,10.6c-3.8,2.2-8.4,3.6-16,3.6C673.8,407.3,664,401.3,664,394.9z
	 M699.2,396.7c0-4.4-2.8-6.3-7-8.8c-1-0.6-7.4-4.4-8.9-5.4c-6.1,2.8-9.9,6.2-9.9,10.8c0,7,7.2,10.4,14.6,10.4
	C693,403.7,699.2,401.4,699.2,396.7z M700.2,345.3c0-3.9-0.8-6.1-3.6-6.1c-2.2,0-3.8,1.2-5.5,3.9c-3.9,6.2-4.5,10.2-4.5,15.3
	c0,3.8,1.2,5.6,3.6,5.6C696.4,364,700.2,352.4,700.2,345.3z M771.6,367.7c0.5,0.3,0.5,0.5,0.3,0.9c-2.2,3.6-9,10-17.8,10
	c-6.6,0-10.6-3.6-10.6-10.6c0-7.8,4.2-18.4,12.4-25.8c4-3.6,9.6-6.2,15-6.2c4.6,0,7,3,7,5.9c0,5.1-3.4,9.7-9.2,12.9
	c-5.4,2.8-10.8,4-14.6,4.2c-0.4,1-1,3.8-1,7.4c0,4,2.6,6.4,5.4,6.4c4.6,0,8.6-3,10.8-6c0.2-0.2,0.6-0.4,0.8-0.2L771.6,367.7z
	 M754.9,355.8c1.8,0,6.6-1.2,10-3.8c2.2-1.8,4.2-4.8,4.2-7.6c0-1.8-0.8-3.6-3-3.6C761.1,340.8,756.1,350.4,754.9,355.8z M815.1,377
	c-0.2,0.4-0.4,0.6-1.4,0.6h-6.4c-0.9,0-1-0.7-0.8-1.3l6.8-18.5c2.2-6.4,4.6-12.6,4.6-14c0-1-0.6-1.6-1.5-1.6c-1.8,0-5.7,3.6-7.3,5.2
	c-0.2,0.4-0.6,0.4-0.9,0.1l-1.1-1.1c-0.4-0.2-0.6-0.6-0.2-1c1.4-1.8,8-9.4,17.1-9.4c2.9,0,3.8,2,3.8,3.4c0,2.2-2.9,9-4.7,13.4
	l0.6,0.4c3-4.6,12.2-17.2,21.7-17.2c3.7,0,5.7,2.8,5.7,5.6c0,2.6-1.3,7.3-5.4,17.6c-2.6,6.6-4,10.4-4,11.8c0,1,0.4,1.6,1.2,1.6
	c1.4,0,5.2-3.4,6.2-4.8c0.4-0.2,0.8-0.2,1.2,0.2l1,0.8c0.4,0.2,0.4,0.6,0,1.2c-1.2,1.6-8.2,8.6-16.6,8.6c-2.2,0-3.4-1.2-3.4-3
	c0-1.8,2.8-8.6,6-17.4c1.5-4.2,4.3-11.8,4.3-13c0-1.6-0.9-2.4-2.3-2.4c-3,0-11.4,8-15.6,14.8c-2,3.2-3.8,6.2-5.4,10.2L815.1,377z
	 M908,369c0.4,0.2,0.6,0.4,0.2,1c-1.5,2.2-8,8.6-15.4,8.6c-4,0-9-3.1-9-9.9c0-14,10.9-32.7,23.3-32.7c5.2,0,6.9,3.8,6.9,5.6
	c0,2.8-2.2,5-4.2,5c-1.6,0-2.8-0.6-3.4-2.4c-0.6-1.4-1.5-3-3.1-3c-2.2,0-4.1,2.4-6,6.8c-2.5,6-3.9,12.2-3.9,17.6
	c0,5,1.5,7.2,4.1,7.2c3.2,0,7.1-3,8.3-4.4c0.2-0.4,0.6-0.6,0.8-0.4L908,369z M961.5,375.2c1.8-3.2,7.8-15,9-20
	c0.4-1.6,1.2-4,1.2-6.4c0-1.8-0.4-3.4-0.8-4.6c-0.4-1.2-1-2.6-1-4c0-1.8,1.4-4.2,5-4.2c3.8,0,5,2.8,5,6.4c0,4.4-3.6,13.2-7,20
	c-5,9.8-15.6,27.4-24.3,35.8c-2.9,2.8-8.9,9.1-15.1,9.1c-4.4,0-6.4-2.4-6.4-5.2c0-3,2.4-5,4.6-5.2c1.8,0,2.6,0.8,3.6,1.8
	c0.8,0.8,2,1.4,2.8,1.4c1,0,2.6-0.4,4.5-1.7c4.6-3.3,8.3-8.9,9.9-11.4c1.1-1.8,1.4-4.2,1-6.8c-0.2-3.2-2.5-29.8-3.7-34.2
	c-0.5-1.8-0.7-2.6-1.9-2.6c-1.8,0-4.4,5-5.2,7.2c-0.2,0.6-0.4,0.6-0.9,0.5l-1.5-0.5c-0.4,0-0.4-0.4-0.2-1.2
	c0.4-1.2,4.6-13.4,13.4-13.4c3.6,0,5.6,2.6,6.2,11c0.8,11.4,1.2,23.2,1.3,28.2H961.5z"/>
</svg>
